<svg xmlns="http://www.w3.org/2000/svg" enable-background="new 0 0 1000 1000" viewBox="0 0 1000 1000" id="profile"><linearGradient id="a" x1="502.396" x2="519.046" y1="587.732" y2="1153.836" gradientUnits="userSpaceOnUse"><stop offset=".032" stop-color="#faaf87"></stop><stop offset=".82" stop-color="#ffd9a9"></stop></linearGradient><path fill="url(#a)" d="M849.85,745.55c-32.58-32.2-187.63-11.77-239.61-70.46c-10.45-11.81-20.66-52.67-28.74-94.17
		c-0.24-1.24-1.43-2.15-2.82-2.15h-64h-5.91h-63.99c-1.39,0-2.58,0.91-2.82,2.15c-8.09,41.5-18.29,82.35-28.74,94.17
		c-51.97,58.69-207.05,38.26-239.61,70.46c-13.4,13.29-16.98,43.5-17.13,71.09c0,0,1.28,268.71,2.87,268.71
		c0,0,707.64-1.16,707.64-2.6V816.64C866.83,789.06,863.25,758.85,849.85,745.55z"></path><defs><path id="b" d="M854.18,750.18c-20.44-28.55-83.45-21.11-144.94-36.32C668.8,795.82,595.7,850.55,512.23,850.55
					c-83.47,0-156.57-54.73-197.01-136.68c-63.1,10.52-107.11,14.22-138.69,29.56c-37.56,18.25-28.3,300.07-28.3,300.07H509.2h6.05
					h360.98V860.47C876.08,820.57,867.92,769.41,854.18,750.18z"></path></defs><g><linearGradient id="c" x1="467.648" x2="564.136" y1="180.381" y2="577.298" gradientUnits="userSpaceOnUse"><stop offset=".032" stop-color="#faaf87"></stop><stop offset="1" stop-color="#ffd9a9"></stop></linearGradient><path fill="url(#c)" d="M335.75,278.05c24.63-107.5,102.01-150.53,174.49-151.73v-0.08
				c0.59,0.01,1.22,0.06,1.81,0.06c0.63,0,1.19-0.05,1.81-0.05v0.07c72.47,1.4,149.71,44.62,174.06,152.18
				c35.08,155.02-25.81,252.05-95.04,310.73c-27.97,23.76-54.5,34.36-79.69,34.34v0.09c-0.63,0.02-1.2-0.08-1.81-0.08
				c-0.6,0-1.24,0.1-1.82,0.08v-0.09c-25.23-0.07-51.72-10.73-79.61-34.55C360.87,530.16,300.28,432.97,335.75,278.05z"></path><linearGradient id="d" x1="455.719" x2="564.784" y1="523.111" y2="523.111" gradientUnits="userSpaceOnUse"><stop offset="0" stop-color="#a7000b"></stop><stop offset="1" stop-color="red"></stop></linearGradient><path fill="url(#d)" d="M521.83,505.11c-4.43,0-9.57,5.73-11.58,5.73c-2.02,0-7.15-5.73-11.58-5.73
				c-9.93,0-42.95,16.38-42.95,16.38s7.61,5.55,14.03,8.06c15.54,6.07,27.61,11.57,40.5,11.57c12.89,0,24.96-5.49,40.5-11.57
				c6.42-2.51,14.03-8.06,14.03-8.06S531.76,505.11,521.83,505.11z"></path></g><path fill="#9e5428" d="M610.46,106.71c0,0-313.16-122.77-355.22,168.23c-4.58,31.73-11.84,162.55,65.87,179.82
	c35.76,7.95,142.42-124.69,283.6-126.69c0,0,62.82,174.43-7.31,238.93c0,0,53.08-22,110.57-164.39
	C707.96,402.61,769.3,190.61,610.46,106.71z"></path><g><line x1="414" x2="414" y1="675" y2="675" fill="none" stroke="#fff" stroke-linecap="round" stroke-miterlimit="10" stroke-width="13"></line><path fill="none" stroke="#fff" stroke-dasharray="0 17.839" stroke-linecap="round" stroke-miterlimit="10" stroke-width="13" d="M430.86,680.8c32.16,9.7,104.42,24.91,164.57-10.08"></path><line x1="603" x2="603" y1="666" y2="666" fill="none" stroke="#fff" stroke-linecap="round" stroke-miterlimit="10" stroke-width="13"></line></g></svg>