<svg xmlns="http://www.w3.org/2000/svg" viewBox="0 0 64 64" id="profile"><path fill="#044388" d="M45.844 18.023h-3a1 1 0 0 1 0-2h3a1 1 0 0 1 0 2Z"></path><path fill="#ccdde7" d="M42.844 17.023a2 2 0 0 1-4 0 2 2 0 0 1 4 0Z"></path><path fill="#044388" d="M45.844 34.023h-3a1 1 0 0 1 0-2h3a1 1 0 0 1 0 2Z"></path><path fill="#ccdde7" d="M42.844 33.023a2 2 0 0 1-4 0 2 2 0 0 1 4 0Z"></path><path fill="#168fd6" d="m53.7 54.727-25.773 6.22a.98.98 0 0 1-.6-.039C17.407 57.262 7.054 47.369 3.22 36.26a.996.996 0 0 1 .698-1.315l26.818-6.702a.994.994 0 0 1 1.177.617 42.728 42.728 0 0 0 7.704 13.163 42.916 42.916 0 0 0 14.282 10.832.998.998 0 0 1-.2 1.872Z"></path><path fill="#fff" d="M10.987 38.543a1.002 1.002 0 0 1-.24-1.97l11.178-2.78a1 1 0 0 1 .482 1.94l-11.178 2.78a.984.984 0 0 1-.242.03zm2.818 2.934a1.002 1.002 0 0 1-.24-1.97l11.188-2.772a1 1 0 0 1 .48 1.941l-11.187 2.772a.994.994 0 0 1-.241.03zm2.818 2.935a1.002 1.002 0 0 1-.238-1.97l4.79-1.182a1 1 0 0 1 .478 1.941l-4.79 1.182a.992.992 0 0 1-.24.03z"></path><rect width="15" height="18" x="45.844" y="3.023" fill="#044388" rx="1"></rect><path fill="#fff" d="M56.844 9.023h-7a1 1 0 0 1 0-2h7a1 1 0 0 1 0 2zm-2 4h-5a1 1 0 0 1 0-2h5a1 1 0 0 1 0 2zm0 4h-5a1 1 0 0 1 0-2h5a1 1 0 0 1 0 2z"></path><rect width="15" height="18" x="45.844" y="27.023" fill="#168fd6" rx="1"></rect><path fill="#fff" d="M56.844 33.023h-7a1 1 0 0 1 0-2h7a1 1 0 0 1 0 2zm-2 4h-5a1 1 0 0 1 0-2h5a1 1 0 0 1 0 2zm0 4h-5a1 1 0 0 1 0-2h5a1 1 0 0 1 0 2z"></path><path d="M16.613 42.991a.698.698 0 0 0 .517.678 38.798 38.798 0 0 0 10.598 1.352 45.956 45.956 0 0 0 10.594-1.353.698.698 0 0 0 .522-.679v-2.055a9.075 9.075 0 0 0-9.2-8.945h-3.832a9.075 9.075 0 0 0-9.2 8.945Z" opacity=".1"></path><path fill="#044388" d="M16.613 41.991a.698.698 0 0 0 .517.678 38.798 38.798 0 0 0 10.598 1.352 45.956 45.956 0 0 0 10.594-1.353.698.698 0 0 0 .522-.679v-2.055a9.075 9.075 0 0 0-9.2-8.945h-3.832a9.075 9.075 0 0 0-9.2 8.945Z"></path><path d="M25.404 32.382c-.066 1.325 4.462 1.58 4.648 0v-3.807h-4.648Z" opacity=".1"></path><path fill="#ccdde7" d="M25.404 31.68c-.066 1.324 4.462 1.58 4.648 0v-3.105h-4.648Z"></path><path d="M25.42 28.993h4.632v.434H25.42z" opacity=".1"></path><path fill="#ccdde7" d="M19.593 20.8a2.312 2.312 0 0 0 2.325 2.3c-.938 8.539 12.546 8.533 11.62 0a2.3 2.3 0 0 0 .953-4.393c-.098.604-1.592-3.658-2.115-3.658H23.08c-.523 0-2.016 4.262-2.115 3.658a2.293 2.293 0 0 0-1.372 2.093Z"></path><path d="M27.728 19.232c-2.905 0-3.486-1.894-4.067-1.894-.704 0-.997 1.335-1.592 2.491a.591.591 0 0 1-1.104-.37 18.18 18.18 0 0 1-.087-4.83 4.397 4.397 0 0 1 3.44-3.404c.567-.058 1.989-.202 3.41-.202s2.843.144 3.41.202a4.397 4.397 0 0 1 3.44 3.404 18.18 18.18 0 0 1-.087 4.83c.012.647-.777.979-1.104.37-.595-1.156-.888-2.491-1.592-2.491-.58 0-1.162 1.894-4.067 1.894Z" opacity=".1"></path><path fill="#044388" d="M27.728 18.5c-2.905 0-3.486-1.726-4.067-1.726-.704 0-.997 1.216-1.592 2.27a.596.596 0 0 1-1.104-.337 15.096 15.096 0 0 1-.087-4.4 4.226 4.226 0 0 1 3.44-3.1c.567-.053 1.989-.184 3.41-.184s2.843.13 3.41.184a4.226 4.226 0 0 1 3.44 3.1 15.097 15.097 0 0 1-.087 4.4.596.596 0 0 1-1.104.336c-.595-1.053-.888-2.269-1.592-2.269-.58 0-1.162 1.726-4.067 1.726Z"></path><path fill="#fff" d="M34.486 38.023a1 1 0 0 1-2 0 1 1 0 0 1 2 0Z"></path></svg>